<?xml version="1.0" encoding="utf-8"?>
<!-- Generator: Adobe Illustrator 16.0.0, SVG Export Plug-In . SVG Version: 6.00 Build 0)  -->
<!DOCTYPE svg PUBLIC "-//W3C//DTD SVG 1.1//EN" "http://www.w3.org/Graphics/SVG/1.1/DTD/svg11.dtd">
<svg version="1.1" id="Layer_1" xmlns="http://www.w3.org/2000/svg" xmlns:xlink="http://www.w3.org/1999/xlink" x="0px" y="0px"
	 width="276.887px" height="220.043px" viewBox="0 0 276.887 220.043" enable-background="new 0 0 276.887 220.043"
	 xml:space="preserve">
<path fill="#00558B" d="M4.525,138.871c-4.243,14.953-5.752,37.072-3.243,60.355h24.529c1.654-17.945,7.554-52.428,12.092-67.176
	C26.563,133.154,15.394,135.439,4.525,138.871z"/>
<path fill="#00558B" d="M15.718,104.124c-4.148,9.479-7.523,19.403-10.037,29.683c9.885-2.953,20.003-4.98,30.26-6.072
	C29.598,119.367,22.881,111.39,15.718,104.124z"/>
<path fill="#00558B" d="M41.403,62.198c-8.109,9.875-15.198,20.687-21.102,32.254C31.979,87.965,44.31,82.896,57.05,79.335
	C52.575,73.924,47.481,68.297,41.403,62.198z"/>
<path fill="#00558B" d="M61.835,78.066c10.287-17.255,22.57-32.93,35.861-46.03c-16.857,4.279-33.035,11.247-47.959,20.721
	c-1.852,1.952-3.66,3.947-5.424,5.986C51.238,65.672,56.903,71.991,61.835,78.066L61.835,78.066z"/>
<path fill="#00558B" d="M41.696,135.535c-4.326,14.592-9.381,47.633-10.885,63.691H82.72
	C76.513,186.49,52.769,151.035,41.696,135.535z"/>
<path fill="#00558B" d="M92.898,19.652c-10.63,5.722-20.608,12.582-29.795,20.42c11.661-5.776,23.896-10.154,36.475-13.105
	C97.437,24.411,95.208,21.98,92.898,19.652z"/>
<path fill="#00558B" d="M53.89,131.275c-3.184,0-6.359,0.092-9.523,0.275c11.559,16.025,37.552,55.982,42.592,67.553
	c-0.399-13.84,1.777-44.896,7.793-62.701c-13.228-3.393-26.915-5.127-40.857-5.127C53.893,131.275,53.89,131.275,53.89,131.275z"/>
<path fill="#00558B" d="M103.831,32.333C90.957,44.505,78.698,59.446,68.057,76.649c11.256-2.346,22.76-3.549,34.345-3.549
	c8.199,0,16.357,0.617,24.418,1.8c0.004-0.005,0.008-0.01,0.012-0.015C119.967,57.93,112.562,43.983,103.831,32.333z"/>
<path fill="#00558B" d="M173.521,30.845c-11.557-2.551-23.428-3.855-35.471-3.855c-10.266,0-20.45,0.979-30.446,2.869
	c8.478,11.359,15.713,24.789,22.402,40.918C142.734,54.727,157.459,41.276,173.521,30.845z"/>
<path fill="#00558B" d="M234.982,13.082c1.104,6.304,3.508,21.442,4.869,40.493c11.535-6.188,23.926-11.166,37.035-14.793
	C264.119,28.101,250.014,19.472,234.982,13.082z"/>
<path fill="#F37321" d="M235.326,53.324c-1.465-20.11-4.092-35.716-5.012-40.786c-15.951,2.994-31.15,8.662-45.287,16.598
	C202.824,34.297,219.764,42.421,235.326,53.324z"/>
<path fill="#00558B" d="M58.651,83.565c-13.97,3.867-27.439,9.594-40.062,17.062c7.613,7.685,14.715,16.135,21.394,24.986
	c4.8-14.206,10.448-26.71,16.065-37.29C56.896,86.725,57.769,85.141,58.651,83.565z"/>
<path fill="#00558B" d="M134.533,4.041c-13.106,2.969-25.659,7.507-37.456,13.435c2.54,2.621,4.973,5.373,7.312,8.262
	C114.131,16.979,124.301,9.631,134.533,4.041z"/>
<path fill="#00558B" d="M112.757,24.416c8.339-1.267,16.789-1.927,25.294-1.927c13.801,0,27.381,1.664,40.539,4.918
	c-2.738-12.657-5.432-22.422-6.881-27.392C171.359,0.013,171.01,0,170.658,0c-7.1,0-21.23,1.303-21.23,1.303
	C137.279,5.989,125.073,14.192,112.757,24.416z"/>
<path fill="#00558B" d="M224.664,9.103c-15.387-5.348-31.6-8.417-48.244-8.992c1.479,5.174,3.857,14.004,6.305,25.162
	C196.037,17.803,210.133,12.344,224.664,9.103z"/>
<path fill="#00558B" d="M62.466,86.154c-7.031,12.623-13.171,26.313-18.079,40.891c3.158-0.178,6.326-0.27,9.503-0.27
	c0.002,0,0.002,0,0.004,0c13.122,0,26.023,1.496,38.543,4.424c-3.934-5.93-7.399-11.381-10.768-16.682
	C75.255,104.42,69.551,95.443,62.466,86.154z"/>
<path fill="#00558B" d="M64.929,81.967c7.695,9.925,13.723,19.407,20.539,30.138c3.594,5.657,7.299,11.485,11.564,17.876
	c6.8-18.35,15.793-35.551,26.766-50.959c-7.073-0.933-14.219-1.421-21.396-1.421C89.733,77.601,77.167,79.092,64.929,81.967z"/>
<path fill="#00558B" d="M149.197,61.058h6.543l9.893,46.214h-6.541l-1.967-9.895l-9.312-0.064l-1.967,9.959h-6.541L149.197,61.058z
	 M152.453,74.271l-3.32,16.565h6.672l-3.287-16.565H152.453z"/>
<path fill="#00558B" d="M169.25,61.122l13.213,0.064c1.805,0,3.346,0.641,4.625,1.918c1.277,1.278,1.918,2.82,1.918,4.625v13.212
	c0,2.514-1.086,4.404-3.256,5.672l3.256,20.658h-6.543l-3.287-19.787h-3.383v19.787h-6.543V61.122z M175.793,67.665v13.341h4.156
	c0.709,0,1.305-0.252,1.789-0.757c0.482-0.505,0.725-1.091,0.725-1.757v-8.249c0-0.709-0.242-1.316-0.725-1.821
	c-0.484-0.505-1.08-0.757-1.789-0.757H175.793z"/>
<path fill="#00558B" d="M197.488,63.975c1.934-1.944,4.264-2.917,6.992-2.917s5.061,0.973,6.994,2.917s2.9,4.281,2.9,7.009v3.287
	h-6.574v-3.287c0-0.923-0.322-1.707-0.967-2.352s-1.43-0.967-2.354-0.967s-1.703,0.322-2.336,0.967
	c-0.635,0.645-0.951,1.429-0.951,2.352v26.394c0,0.924,0.316,1.703,0.951,2.337c0.633,0.634,1.412,0.95,2.336,0.95
	s1.709-0.316,2.354-0.95s0.967-1.413,0.967-2.337v-3.318h6.574v3.318c0,2.729-0.967,5.061-2.9,6.994s-4.266,2.9-6.994,2.9
	s-5.059-0.967-6.992-2.9s-2.9-4.266-2.9-6.994V70.983C194.588,68.256,195.555,65.919,197.488,63.975z"/>
<path fill="#00558B" d="M216.477,61.058h19.787v6.607h-6.605v39.606h-6.574V67.665h-6.607V61.058z"/>
<path fill="#00558B" d="M246.359,107.271h-6.607V61.058h6.607V107.271z"/>
<path fill="#00558B" d="M255.783,63.975c1.98-1.944,4.369-2.917,7.164-2.917c2.793,0,5.182,0.973,7.162,2.917
	s2.971,4.281,2.971,7.009v3.287h-6.734v-3.287c0-0.923-0.33-1.707-0.99-2.352s-1.463-0.967-2.408-0.967
	c-0.947,0-1.746,0.322-2.395,0.967c-0.65,0.645-0.973,1.429-0.973,2.352v26.394c0,0.924,0.322,1.703,0.973,2.337
	c0.648,0.634,1.447,0.95,2.395,0.95c0.945,0,1.748-0.316,2.408-0.95s0.99-1.413,0.99-2.337v-3.318h6.734v3.318
	c0,2.729-0.99,5.061-2.971,6.994s-4.369,2.9-7.162,2.9c-2.795,0-5.184-0.967-7.164-2.9s-2.971-4.266-2.971-6.994V70.983
	C252.812,68.256,253.803,65.919,255.783,63.975z"/>
<path fill="#F37321" d="M122.313,148.264v3.32c0,0.924,0.322,1.703,0.967,2.336s1.43,0.951,2.354,0.951
	c0.923,0,1.702-0.318,2.336-0.951c0.633-0.633,0.951-1.412,0.951-2.336v-6.607c0-0.924-0.318-1.703-0.951-2.336
	c-0.634-0.633-1.413-0.951-2.336-0.951c-2.965-0.021-5.436-1.127-7.412-3.318c-1.676-1.891-2.514-4.094-2.514-6.607v-6.574
	c0-2.729,0.971-5.064,2.916-7.01c1.944-1.943,4.281-2.916,7.01-2.916c2.728,0,5.059,0.973,6.993,2.916
	c1.934,1.945,2.9,4.281,2.9,7.01v3.287h-0.613h-5.993v-3.287c0-0.924-0.318-1.707-0.951-2.352c-0.634-0.645-1.413-0.967-2.336-0.967
	c-0.924,0-1.709,0.322-2.354,0.967s-0.967,1.428-0.967,2.352v6.574c0,0.924,0.322,1.709,0.967,2.354s1.43,0.967,2.354,0.967
	c2.943,0,5.402,1.096,7.38,3.287c1.676,1.891,2.514,4.092,2.514,6.605v6.607c0,2.729-0.967,5.059-2.9,6.992
	c-1.935,1.934-4.266,2.9-6.993,2.9c-2.729,0-5.065-0.967-7.01-2.9c-1.945-1.934-2.916-4.264-2.916-6.992v-3.32H122.313z"/>
<path fill="#F37321" d="M142.365,118.18c1.934-1.943,4.266-2.916,6.994-2.916s5.059,0.973,6.992,2.916
	c1.934,1.945,2.9,4.281,2.9,7.01v3.287h-6.574v-3.287c0-0.924-0.322-1.707-0.967-2.352s-1.428-0.967-2.352-0.967
	s-1.703,0.322-2.336,0.967c-0.635,0.645-0.951,1.428-0.951,2.352v26.395c0,0.924,0.316,1.703,0.951,2.336
	c0.633,0.633,1.412,0.951,2.336,0.951s1.707-0.318,2.352-0.951s0.967-1.412,0.967-2.336v-3.32h6.574v3.32
	c0,2.729-0.967,5.059-2.9,6.992s-4.264,2.9-6.992,2.9s-5.061-0.967-6.994-2.9s-2.9-4.264-2.9-6.992v-26.395
	C139.465,122.461,140.432,120.125,142.365,118.18z"/>
<path fill="#F37321" d="M171.506,161.477H164.9v-46.213h6.605V161.477z"/>
<path fill="#F37321" d="M178.346,161.477v-46.213h19.82v6.607h-13.213v13.213h9.893v6.605h-9.893v13.182h13.213v6.605H178.346z"/>
<path fill="#F37321" d="M202.557,115.264h6.607l6.605,23.107v-23.107h6.607v46.213h-6.607l-6.605-23.105v23.105h-6.607V115.264z"/>
<path fill="#F37321" d="M231.246,118.18c1.934-1.943,4.266-2.916,6.994-2.916s5.059,0.973,6.992,2.916
	c1.934,1.945,2.9,4.281,2.9,7.01v3.287h-6.574v-3.287c0-0.924-0.322-1.707-0.967-2.352s-1.428-0.967-2.352-0.967
	s-1.703,0.322-2.338,0.967c-0.633,0.645-0.949,1.428-0.949,2.352v26.395c0,0.924,0.316,1.703,0.949,2.336
	c0.635,0.633,1.414,0.951,2.338,0.951s1.707-0.318,2.352-0.951s0.967-1.412,0.967-2.336v-3.32h6.574v3.32
	c0,2.729-0.967,5.059-2.9,6.992s-4.264,2.9-6.992,2.9s-5.061-0.967-6.994-2.9s-2.9-4.264-2.9-6.992v-26.395
	C228.346,122.461,229.312,120.125,231.246,118.18z"/>
<path fill="#F37321" d="M253.588,161.477v-46.213h19.363v6.607h-12.91v13.213h9.668v6.605h-9.668v13.182h12.91v6.605H253.588z"/>
<path fill="#00558B" d="M106.025,186.717v1.76c0,0.49,0.171,0.904,0.513,1.24s0.758,0.504,1.248,0.504
	c0.489,0,0.902-0.168,1.238-0.504s0.504-0.75,0.504-1.24v-3.502c0-0.49-0.168-0.904-0.504-1.24s-0.749-0.504-1.238-0.504
	c-1.572-0.012-2.883-0.598-3.932-1.76c-0.889-1.002-1.332-2.17-1.332-3.504v-3.486c0-1.447,0.515-2.686,1.546-3.717
	s2.271-1.547,3.718-1.547c1.446,0,2.683,0.516,3.708,1.547s1.538,2.27,1.538,3.717v1.744h-0.324h-3.18v-1.744
	c0-0.49-0.168-0.906-0.504-1.248s-0.749-0.512-1.238-0.512c-0.49,0-0.906,0.17-1.248,0.512s-0.513,0.758-0.513,1.248v3.486
	c0,0.49,0.171,0.906,0.513,1.248s0.758,0.512,1.248,0.512c1.561,0,2.865,0.582,3.913,1.744c0.889,1.002,1.333,2.17,1.333,3.504
	v3.502c0,1.447-0.513,2.684-1.538,3.709s-2.262,1.539-3.708,1.539c-1.447,0-2.687-0.514-3.718-1.539s-1.546-2.262-1.546-3.709v-1.76
	H106.025z"/>
<path fill="#00558B" d="M118.132,169.217h3.503v19.26c0,0.49,0.168,0.904,0.505,1.24c0.335,0.336,0.752,0.504,1.246,0.504
	c0.496,0,0.912-0.168,1.248-0.504s0.504-0.75,0.504-1.24v-19.26h3.504v19.26c0,1.447-0.516,2.684-1.547,3.709
	s-2.268,1.539-3.709,1.539s-2.677-0.514-3.707-1.539c-1.032-1.025-1.547-2.262-1.547-3.709V169.217z"/>
<path fill="#00558B" d="M139.576,188.477l-2.631-7.877v13.125h-3.504v-24.508h3.504l4.375,13.125l4.375-13.125h3.502v24.508h-3.502
	V180.6l-2.615,7.877H139.576z"/>
<path fill="#00558B" d="M161.133,188.477l-2.631-7.877v13.125h-3.504v-24.508h3.504l4.375,13.125l4.375-13.125h3.502v24.508h-3.502
	V180.6l-2.615,7.877H161.133z"/>
<path fill="#00558B" d="M180.16,193.725h-3.504v-24.508h3.504V193.725z"/>
<path fill="#00558B" d="M184.285,169.217h10.492v3.504h-3.504v21.004h-3.486v-21.004h-3.502V169.217z"/>
<path fill="#00558B" d="M210.172,169.184l2.58,14.355l2.633-14.355h3.537l2.615,14.355l2.598-14.322h3.537l-4.375,24.508h-3.537
	l-2.598-14.629l-2.615,14.629h-3.537l-4.375-24.541H210.172z"/>
<path fill="#00558B" d="M232.342,193.725v-24.508h10.512v3.504h-7.008v7.006h5.246v3.504h-5.246v6.99h7.008v3.504H232.342z"/>
<path fill="#00558B" d="M247.592,193.725v-24.508h10.512v3.504h-7.008v7.006h5.246v3.504h-5.246v6.99h7.008v3.504H247.592z"/>
<path fill="#00558B" d="M261.844,169.217h3.746v8.75l3.748-8.75h3.748l-4.314,10.084l4.314,14.424h-3.748l-2.814-9.178l-0.934,2.17
	v7.008h-3.746V169.217z"/>
<text transform="matrix(1 0 0 1 168.3135 53.3247)" fill="#00558B" font-family="'IdealSans-Light'" font-size="18">2016</text>
<g>
	<path fill="#00558B" d="M1.855,216.104c0.049-0.606,0.065-2.003,0.065-2.824v-4.055l-1.74,0.444L0,208.65
		c0.755-0.181,1.609-0.409,2.118-0.558l0.804-0.229l0.181,0.131c-0.033,0.296-0.049,1.511-0.049,1.903v4.5
		c0,0.508,0.016,1.328,0.049,1.706H1.855z"/>
	<path fill="#00558B" d="M12.112,216.152c-0.952-0.049-1.855-0.065-2.987-0.065c-1.149,0-2.135,0.017-3.119,0.065l-0.197-0.804
		c3.857-2.841,4.842-3.842,4.842-4.975c0-0.951-0.689-1.51-1.74-1.51c-0.722,0-1.543,0.312-2.298,0.936l-0.345-0.985
		c0.772-0.591,1.772-0.967,2.725-0.967c1.56,0,2.807,0.935,2.807,2.429c0,1.034-0.607,1.92-1.576,2.807
		c-0.722,0.642-1.806,1.479-2.528,2.003c1.477,0,3.168,0,4.531-0.051C12.162,215.414,12.129,215.743,12.112,216.152z"/>
	<path fill="#00558B" d="M19.102,212.016c-0.64-0.017-1.248-0.032-1.855-0.032h-1.264c-0.69,0-1.231,0.016-1.773,0.032
		c0.033-0.246,0.049-0.689,0.049-0.968c0.722,0.031,1.396,0.049,2.446,0.049c0.738,0,1.691-0.018,2.479-0.049
		C19.135,211.311,19.102,211.721,19.102,212.016z"/>
	<path fill="#00558B" d="M22.825,216.104c0.049-0.606,0.065-2.003,0.065-2.824v-4.055l-1.74,0.444l-0.181-1.019
		c0.755-0.181,1.609-0.409,2.118-0.558l0.804-0.229l0.181,0.131c-0.033,0.296-0.049,1.511-0.049,1.903v4.5
		c0,0.508,0.016,1.328,0.049,1.706H22.825z"/>
	<path fill="#00558B" d="M29.225,210.571c-1.067-0.492-1.953-1.33-1.953-2.626c0-1.576,1.329-2.872,3.167-2.872
		c1.773,0,3.054,1.279,3.054,2.774c0,1.279-0.789,2.05-2.003,2.609c1.378,0.622,2.249,1.592,2.249,2.757
		c0,1.821-1.412,3.168-3.48,3.168c-1.954,0-3.382-1.246-3.382-2.889C26.877,212.065,27.812,211.079,29.225,210.571z M30.291,210.966
		c-1.412,0.509-2.265,1.248-2.265,2.462c0,1.198,1.066,1.97,2.331,1.97c1.379,0,2.233-0.902,2.233-2.067
		C32.59,212.279,31.785,211.523,30.291,210.966z M30.456,210.047c1.215-0.411,1.904-1.183,1.904-2.135
		c0-1.116-0.837-1.888-1.969-1.888c-1.215,0-1.986,0.837-1.986,1.921C28.404,208.963,29.191,209.569,30.456,210.047z"/>
	<path fill="#00558B" d="M40.119,212.246l0.558-4.054c0.164-1.167,0.377-2.939,0.46-3.826l0.344-0.081
		c0.345,0.87,0.739,1.708,1.083,2.495l3.25,7.354l3.25-7.321c0.329-0.738,0.854-1.903,1.083-2.527h0.329
		c0.065,0.624,0.377,3.036,0.476,3.742l0.558,4.136c0.148,1.067,0.476,3.087,0.64,3.94l-1.28,0.098
		c-0.049-0.524-0.165-1.64-0.296-2.527l-0.804-6.024c-0.722,1.625-3.645,8.158-3.808,8.603l-0.329,0.082l-3.809-8.668l-0.804,6.09
		c-0.083,0.689-0.23,1.806-0.263,2.348h-1.247C39.708,215.118,39.971,213.396,40.119,212.246z"/>
	<path fill="#00558B" d="M57.397,207.797c0.706-1.56,1.133-2.511,1.478-3.414l0.328-0.098l3.956,8.7
		c0.51,1.148,1.133,2.461,1.461,3.118l-1.313,0.114L61.6,212.41h-5.088l-0.263,0.607c-0.459,1.099-0.985,2.429-1.248,3.086h-1.346
		L57.397,207.797z M56.954,211.408h4.202l-2.101-4.81L56.954,211.408z"/>
	<path fill="#00558B" d="M73.497,216.218l-3.185-4.94h-2.15v2.463c0,0.622,0.017,1.903,0.033,2.363h-1.331
		c0.066-0.788,0.099-2.89,0.099-3.956v-3.628c0-1.051-0.033-3.184-0.099-3.972c0.673,0,2.134-0.05,2.89-0.066
		c2.725-0.034,4.186,1.477,4.153,3.217c-0.033,1.609-0.936,2.709-2.479,3.3l1.773,2.644c0.427,0.639,1.297,1.855,1.708,2.396
		L73.497,216.218z M70.082,210.26c1.625,0,2.578-1.117,2.578-2.396c0-1.461-0.936-2.315-2.823-2.315c-0.591,0-1.183,0-1.674,0.033
		v4.679H70.082z"/>
	<path fill="#00558B" d="M85.819,215.136c-1.034,0.804-2.282,1.263-3.71,1.263c-3.397,0-5.696-2.708-5.696-5.811
		c0-3.514,2.495-6.303,6.008-6.303c1.231,0,2.462,0.377,3.349,1.001l-0.362,1.101c-0.82-0.625-1.904-1.002-3.07-1.002
		c-2.757,0-4.694,2.183-4.694,4.939c0,3.006,1.888,4.991,4.546,4.991c1.527,0,2.692-0.592,3.71-1.543L85.819,215.136z"/>
	<path fill="#00558B" d="M96.469,216.104c0.065-0.788,0.082-2.89,0.082-3.956v-1.543h-6.615v3.136c0,0.622,0,1.903,0.033,2.363
		h-1.33c0.065-0.788,0.082-2.89,0.082-3.956v-3.628c0-1.051-0.017-3.168-0.082-3.955c0.459,0,0.936-0.017,1.33-0.066
		c-0.033,0.476-0.033,1.772-0.033,2.413v2.675h6.615v-1.066c0-1.051-0.016-3.168-0.082-3.955c0.459,0,0.935-0.017,1.329-0.066
		c-0.033,0.476-0.049,1.772-0.049,2.413v6.829c0,0.622,0.016,1.903,0.049,2.363H96.469z"/>
	<path fill="#00558B" d="M105.357,220.043c0.066-0.869,0.083-2.807,0.083-3.956v-8.438c0-1.165-0.017-2.774-0.083-3.594
		c0.296,0,0.756-0.034,1.084-0.066c-0.033,0.312-0.05,1.592-0.05,2.314v11.377c0,0.688,0,1.854,0.05,2.362H105.357z"/>
	<path fill="#00558B" d="M120.243,205.564c-0.952,0-1.954-0.017-3.103-0.017c-0.476,0-1.362,0-1.822,0.017
		c-0.017,0.394-0.017,1.002-0.017,1.33v2.792l4.153-0.018c-0.033,0.311-0.049,0.689-0.049,1.05l-4.104-0.016v3.037
		c0,0.64,0,1.903,0.032,2.363h-1.329c0.065-0.788,0.082-2.89,0.082-3.956v-3.628c0-1.051-0.017-3.25-0.082-4.038
		c0.919,0.032,2.019,0.066,3.135,0.066c1.132,0,2.249-0.034,3.201-0.066C120.275,204.842,120.259,205.155,120.243,205.564z"/>
	<path fill="#00558B" d="M124.622,207.797c0.706-1.56,1.133-2.511,1.478-3.414l0.328-0.098l3.957,8.7
		c0.509,1.148,1.132,2.461,1.461,3.118l-1.313,0.114l-1.708-3.808h-5.088l-0.262,0.607c-0.46,1.099-0.985,2.429-1.248,3.086h-1.346
		L124.622,207.797z M124.179,211.408h4.202l-2.101-4.81L124.179,211.408z"/>
	<path fill="#00558B" d="M134.171,216.104c0.065-0.788,0.098-2.89,0.098-3.956v-3.628c0-1.051-0.033-3.168-0.098-3.955
		c0.476,0,0.952-0.017,1.346-0.066c-0.032,0.476-0.049,1.772-0.049,2.413v6.829c0,0.622,0.017,1.903,0.049,2.363H134.171z"/>
	<path fill="#00558B" d="M145.987,216.218l-3.185-4.94h-2.15v2.463c0,0.622,0.017,1.903,0.033,2.363h-1.33
		c0.066-0.788,0.098-2.89,0.098-3.956v-3.628c0-1.051-0.032-3.184-0.098-3.972c0.673,0,2.134-0.05,2.889-0.066
		c2.725-0.034,4.185,1.477,4.153,3.217c-0.033,1.609-0.936,2.709-2.48,3.3l1.774,2.644c0.426,0.639,1.297,1.855,1.708,2.396
		L145.987,216.218z M142.573,210.26c1.626,0,2.577-1.117,2.577-2.396c0-1.461-0.936-2.315-2.823-2.315c-0.591,0-1.183,0-1.674,0.033
		v4.679H142.573z"/>
	<path fill="#00558B" d="M149.874,216.104c0.065-0.788,0.082-2.89,0.082-3.956v-3.628c0-1.051-0.017-3.168-0.082-3.955
		c0.508,0,2.117-0.066,2.856-0.066c2.872,0,3.972,1.443,3.972,2.872c0,1.248-0.788,2.199-2.02,2.578
		c1.726,0.426,2.562,1.493,2.562,2.856c0,1.87-1.527,3.299-4.203,3.299H149.874z M152.565,209.586c1.937,0,2.905-0.869,2.905-2.083
		c0-1.217-0.886-1.955-2.839-1.955c-0.656,0-1.134,0.033-1.479,0.05c-0.016,0.181-0.016,0.92-0.016,1.083v1.822
		c0,0.229,0,0.902,0.016,1.051C151.4,209.569,152.27,209.586,152.565,209.586z M152.976,215.035c1.855,0,3.038-0.737,3.038-2.248
		c0-1.296-1.051-2.216-3.415-2.216c-0.558,0-1.035,0-1.461,0.033v3.136c0,0.394,0,0.853,0.016,1.23
		C151.762,215.02,152.418,215.035,152.976,215.035z"/>
	<path fill="#00558B" d="M162.345,207.797c0.706-1.56,1.132-2.511,1.478-3.414l0.328-0.098l3.957,8.7
		c0.508,1.148,1.132,2.461,1.46,3.118l-1.313,0.114l-1.708-3.808h-5.088l-0.262,0.607c-0.46,1.099-0.985,2.429-1.249,3.086h-1.346
		L162.345,207.797z M161.902,211.408h4.201l-2.101-4.81L161.902,211.408z"/>
	<path fill="#00558B" d="M171.877,212.147l0.05-3.842c0-1.05,0-3.15-0.066-3.939l0.345-0.081l7.896,9.603v-5.368
		c0-1.051-0.032-3.168-0.099-3.955c0.459,0,0.951-0.017,1.346-0.066c-0.05,0.476-0.082,1.772-0.082,2.413l-0.082,6.895
		c-0.016,0.64-0.016,2.035,0.032,2.494l-0.345,0.082l-7.846-9.487v6.846c0,0.64,0.016,1.903,0.05,2.363h-1.346
		C171.812,215.315,171.86,213.214,171.877,212.147z"/>
	<path fill="#00558B" d="M186.335,210.324v3.416c0,0.622,0.016,1.903,0.031,2.363h-1.33c0.066-0.788,0.098-2.89,0.098-3.956v-3.628
		c0-1.051-0.031-3.168-0.098-3.955c0.461,0,0.936-0.017,1.33-0.066c-0.016,0.476-0.031,1.772-0.031,2.413v3.103l2.329-2.348
		c0.938-0.936,2.249-2.265,3.054-3.118h1.577l-5.648,5.548l2.628,2.675c0.901,0.954,2.329,2.414,3.232,3.333l-1.479,0.114
		L186.335,210.324z"/>
	<path fill="#00558B" d="M197.986,216.398c-1.102,0-2.366-0.409-3.203-0.936l0.082-1.296c0.691,0.574,1.987,1.148,3.185,1.148
		c1.526,0,2.464-0.886,2.464-2.15c0-2.512-5.271-2.561-5.271-5.646c0-1.789,1.413-3.233,3.546-3.233
		c1.034,0,1.953,0.345,2.626,0.804l-0.393,1.067c-0.625-0.46-1.479-0.789-2.281-0.789c-1.412,0-2.3,0.854-2.3,2.003
		c0,2.381,5.271,2.364,5.271,5.631C201.712,214.84,200.331,216.398,197.986,216.398z"/>
	<path fill="#00558B" d="M203.168,218.518l0.115-0.116c0.92-0.639,1.297-1.198,1.297-1.789c0-0.377-0.213-0.673-0.771-0.936
		l-0.23-0.098c0.18-0.592,0.575-0.904,1.002-0.904c0.574,0,1.052,0.543,1.052,1.347c0,1.067-0.707,2.085-2.069,3.069
		L203.168,218.518z"/>
	<path fill="#00558B" d="M214.229,207.797c0.705-1.56,1.131-2.511,1.476-3.414l0.329-0.098l3.956,8.7
		c0.508,1.148,1.133,2.461,1.462,3.118l-1.314,0.114l-1.706-3.808h-5.09l-0.263,0.607c-0.458,1.099-0.985,2.429-1.247,3.086h-1.347
		L214.229,207.797z M213.786,211.408h4.201l-2.101-4.81L213.786,211.408z"/>
	<path fill="#00558B" d="M225.009,210.324v3.416c0,0.622,0.016,1.903,0.034,2.363h-1.331c0.066-0.788,0.099-2.89,0.099-3.956v-3.628
		c0-1.051-0.032-3.168-0.099-3.955c0.459,0,0.937-0.017,1.331-0.066c-0.019,0.476-0.034,1.772-0.034,2.413v3.103l2.331-2.348
		c0.936-0.936,2.249-2.265,3.052-3.118h1.577l-5.646,5.548l2.626,2.675c0.903,0.954,2.332,2.414,3.234,3.333l-1.478,0.114
		L225.009,210.324z"/>
	<path fill="#00558B" d="M233.179,218.518l0.116-0.116c0.919-0.639,1.296-1.198,1.296-1.789c0-0.377-0.213-0.673-0.771-0.936
		l-0.23-0.098c0.181-0.592,0.575-0.904,1.002-0.904c0.575,0,1.052,0.543,1.052,1.347c0,1.067-0.707,2.085-2.069,3.069
		L233.179,218.518z"/>
	<path fill="#00558B" d="M250.922,206.911v4.596c0,1.79-0.427,2.823-1.249,3.646c-0.837,0.82-1.952,1.246-3.446,1.246
		c-2.544,0-4.351-1.559-4.351-4.22v-3.659c0-1.051-0.017-3.168-0.082-3.955c0.477,0,0.935-0.017,1.346-0.066
		c-0.049,0.476-0.049,1.772-0.049,2.413v4.858c0,2.528,1.297,3.546,3.382,3.546c2.003,0,3.25-1.23,3.25-3.316v-3.479
		c0-1.051-0.018-3.168-0.1-3.955c0.478,0,0.938-0.017,1.364-0.066C250.938,204.974,250.922,206.271,250.922,206.911z"/>
	<path fill="#00558B" d="M256.792,216.398c-1.1,0-2.363-0.409-3.2-0.936l0.081-1.296c0.689,0.574,1.988,1.148,3.186,1.148
		c1.526,0,2.462-0.886,2.462-2.15c0-2.512-5.271-2.561-5.271-5.646c0-1.789,1.412-3.233,3.548-3.233
		c1.033,0,1.952,0.345,2.625,0.804l-0.395,1.067c-0.623-0.46-1.476-0.789-2.28-0.789c-1.413,0-2.298,0.854-2.298,2.003
		c0,2.381,5.268,2.364,5.268,5.631C260.518,214.84,259.14,216.398,256.792,216.398z"/>
	<path fill="#00558B" d="M265.636,207.797c0.707-1.56,1.133-2.511,1.478-3.414l0.329-0.098l3.956,8.7
		c0.508,1.148,1.131,2.461,1.46,3.118l-1.312,0.114l-1.708-3.808h-5.088l-0.262,0.607c-0.461,1.099-0.986,2.429-1.249,3.086h-1.346
		L265.636,207.797z M265.193,211.408h4.201l-2.101-4.81L265.193,211.408z"/>
</g>
</svg>
